# Blender 4.5.3 LTS
# www.blender.org
mtllib valla.mtl
o fence
v 0.000000 0.000000 -6.266671
v 0.199997 -0.000540 -6.267497
v -0.005378 1.495136 -6.260118
v 0.193532 1.496383 -6.280932
v 0.199997 -0.000540 -6.267497
v 0.183692 0.000000 -6.022861
v 0.193532 1.496383 -6.280932
v 0.197141 1.504842 -6.037553
v 0.183692 0.000000 -6.022861
v -0.016305 0.000540 -6.022035
v 0.197141 1.504842 -6.037553
v -0.001767 1.503595 -6.016739
v -0.016305 0.000540 -6.022035
v 0.000000 0.000000 -6.266671
v -0.001767 1.503595 -6.016739
v -0.005378 1.495136 -6.260118
v -0.005378 1.495136 -6.260118
v 0.193532 1.496383 -6.280932
v -0.001767 1.503595 -6.016739
v 0.197141 1.504842 -6.037553
v -0.016305 0.000540 -6.022035
v 0.183692 0.000000 -6.022861
v 0.000000 0.000000 -6.266671
v 0.199997 -0.000540 -6.267497
v 0.205145 0.976586 -4.273631
v 0.205580 1.176499 -4.279514
v 0.172646 0.923245 -6.088477
v 0.173082 1.123158 -6.094360
v 0.205580 1.176499 -4.279514
v 0.000781 1.177014 -4.279170
v 0.173082 1.123158 -6.094360
v -0.006863 1.123674 -6.094291
v 0.000781 1.177014 -4.279170
v 0.000266 0.977102 -4.273293
v -0.006863 1.123674 -6.094291
v -0.007380 0.923761 -6.088415
v 0.000266 0.977102 -4.273293
v 0.205145 0.976586 -4.273631
v -0.007380 0.923761 -6.088415
v 0.172646 0.923245 -6.088477
v 0.172646 0.923245 -6.088477
v 0.173082 1.123158 -6.094360
v -0.007380 0.923761 -6.088415
v -0.006863 1.123674 -6.094291
v 0.000266 0.977102 -4.273293
v 0.000781 1.177014 -4.279170
v 0.205145 0.976586 -4.273631
v 0.205580 1.176499 -4.279514
v 0.215798 0.400775 -4.263111
v 0.213900 0.600770 -4.262770
v 0.201755 0.412411 -6.081501
v 0.202236 0.612406 -6.080246
v 0.213900 0.600770 -4.262770
v 0.012766 0.601286 -4.265913
v 0.202236 0.612406 -6.080246
v 0.005295 0.612922 -6.081781
v 0.012766 0.601286 -4.265913
v 0.012222 0.401291 -4.267193
v 0.005295 0.612922 -6.081781
v 0.004748 0.412927 -6.083061
v 0.012222 0.401291 -4.267193
v 0.215798 0.400775 -4.263111
v 0.004748 0.412927 -6.083061
v 0.201755 0.412411 -6.081501
v 0.201755 0.412411 -6.081501
v 0.202236 0.612406 -6.080246
v 0.004748 0.412927 -6.083061
v 0.005295 0.612922 -6.081781
v 0.012222 0.401291 -4.267193
v 0.012766 0.601286 -4.265913
v 0.215798 0.400775 -4.263111
v 0.213900 0.600770 -4.262770
v 0.226446 1.015573 -2.113170
v 0.211404 1.214999 -2.111417
v 0.036099 1.001208 -2.112343
v 0.021057 1.200633 -2.110590
v 0.218992 0.464799 -2.111770
v 0.219530 0.664798 -2.112314
v 0.027751 0.465316 -2.110980
v 0.028289 0.665314 -2.111523
v 0.029537 0.010000 -2.330930
v 0.229534 0.009460 -2.331758
v 0.033775 1.455370 -2.334852
v 0.233120 1.471519 -2.335722
v 0.229534 0.009460 -2.331758
v 0.217231 0.010000 -2.097549
v 0.233120 1.471519 -2.335722
v 0.220816 1.472059 -2.101514
v 0.217231 0.010000 -2.097549
v 0.017234 0.010541 -2.096722
v 0.220816 1.472059 -2.101514
v 0.021471 1.455910 -2.100646
v 0.017234 0.010541 -2.096722
v 0.029537 0.010000 -2.330930
v 0.021471 1.455910 -2.100646
v 0.033775 1.455370 -2.334852
v 0.033775 1.455370 -2.334852
v 0.233120 1.471519 -2.335722
v 0.021471 1.455910 -2.100646
v 0.220816 1.472059 -2.101514
v 0.017234 0.010541 -2.096722
v 0.217231 0.010000 -2.097549
v 0.029537 0.010000 -2.330930
v 0.229534 0.009460 -2.331758
v 0.008100 0.010000 -4.306694
v 0.208097 0.009460 -4.307520
v 0.010573 1.483065 -4.304266
v 0.210074 1.471005 -4.311588
v 0.208097 0.009460 -4.307520
v 0.208925 0.010000 -4.107523
v 0.210074 1.471005 -4.311588
v 0.214213 1.421808 -4.117778
v 0.208925 0.010000 -4.107523
v 0.008928 0.010540 -4.106697
v 0.214213 1.421808 -4.117778
v 0.014713 1.433867 -4.110455
v 0.008928 0.010540 -4.106697
v 0.008100 0.010000 -4.306694
v 0.014713 1.433867 -4.110455
v 0.010573 1.483065 -4.304266
v 0.010573 1.483065 -4.304266
v 0.210074 1.471005 -4.311588
v 0.014713 1.433867 -4.110455
v 0.214213 1.421808 -4.117778
v 0.008928 0.010540 -4.106697
v 0.208925 0.010000 -4.107523
v 0.008100 0.010000 -4.306694
v 0.208097 0.009460 -4.307520
v 0.197441 0.418869 -2.300599
v 0.225057 0.615100 -2.309897
v 0.189794 0.372111 -4.120966
v 0.209837 0.568343 -4.133171
v 0.225057 0.615100 -2.309897
v 0.025391 0.651653 -2.314773
v 0.209837 0.568343 -4.133171
v 0.017743 0.604896 -4.135141
v 0.025391 0.651653 -2.314773
v 0.007403 0.455421 -2.301779
v 0.017743 0.604896 -4.135141
v -0.000594 0.408664 -4.122282
v 0.007403 0.455421 -2.301779
v 0.197441 0.418869 -2.300599
v -0.000594 0.408664 -4.122282
v 0.189794 0.372111 -4.120966
v 0.189794 0.372111 -4.120966
v 0.209837 0.568343 -4.133171
v -0.000594 0.408664 -4.122282
v 0.017743 0.604896 -4.135141
v 0.007403 0.455421 -2.301779
v 0.025391 0.651653 -2.314773
v 0.197441 0.418869 -2.300599
v 0.225057 0.615100 -2.309897
v 0.217254 0.990025 -2.307278
v 0.217794 1.190024 -2.307280
v 0.209750 0.990025 -4.123184
v 0.210289 1.190024 -4.123185
v 0.217794 1.190024 -2.307280
v 0.023234 1.190540 -2.307900
v 0.210289 1.190024 -4.123185
v 0.010132 1.190540 -4.125955
v 0.023234 1.190540 -2.307900
v 0.020440 0.990541 -2.308763
v 0.010132 1.190540 -4.125955
v 0.009591 0.990541 -4.125953
v 0.020440 0.990541 -2.308763
v 0.217254 0.990025 -2.307278
v 0.009591 0.990541 -4.125953
v 0.209750 0.990025 -4.123184
v 0.209750 0.990025 -4.123184
v 0.210289 1.190024 -4.123185
v 0.009591 0.990541 -4.125953
v 0.010132 1.190540 -4.125955
v 0.020440 0.990541 -2.308763
v 0.023234 1.190540 -2.307900
v 0.217254 0.990025 -2.307278
v 0.217794 1.190024 -2.307280
vn -0.0541 -0.0025 -0.9985
vn -0.0041 0.0044 -1.0000
vn -0.0542 -0.0025 -0.9985
vn -0.1040 -0.0094 -0.9945
vn 0.9997 -0.0021 0.0261
vn 0.9978 0.0049 0.0665
vn 0.9997 -0.0021 0.0260
vn 0.9999 -0.0091 -0.0145
vn 0.0542 0.0026 0.9985
vn 0.0042 0.0097 0.9999
vn 0.1041 -0.0045 0.9946
vn -0.9997 0.0032 -0.0261
vn -0.9977 0.0099 -0.0665
vn -0.9999 -0.0037 0.0150
vn -0.0099 0.9994 -0.0346
vn -0.0027 -1.0000 0.0020
vn 0.9998 -0.0027 -0.0178
vn 0.0025 0.9996 -0.0294
vn 0.0028 0.9996 -0.0294
vn 0.0029 0.9996 -0.0294
vn -1.0000 0.0027 0.0041
vn -0.0025 -0.9996 0.0294
vn -0.0028 -0.9996 0.0294
vn -0.0029 -0.9996 0.0294
vn -0.0005 -0.0294 -0.9996
vn -0.0004 -0.0294 -0.9996
vn 0.0017 0.0294 0.9996
vn 0.0018 0.0294 0.9996
vn 1.0000 0.0036 -0.0070
vn 0.9999 0.0095 -0.0077
vn 1.0000 -0.0024 -0.0064
vn 0.0025 1.0000 0.0064
vn 0.0026 1.0000 0.0064
vn -0.0024 -1.0000 -0.0064
vn -0.0026 -1.0000 -0.0064
vn 0.0079 0.0063 -0.9999
vn 0.0078 0.0064 -0.9999
vn -0.0179 -0.0041 0.9998
vn -0.0201 -0.0063 0.9998
vn -0.0178 -0.0041 0.9998
vn -0.0156 -0.0019 0.9999
vn -0.0050 0.0084 -1.0000
vn -0.0041 -0.0027 -1.0000
vn 0.9986 -0.0023 0.0525
vn 0.0041 0.0027 1.0000
vn -0.9986 0.0028 -0.0525
vn -0.0808 0.9967 -0.0065
vn -0.0027 -1.0000 0.0022
vn -0.0204 -0.0005 -0.9998
vn -0.0041 0.0017 -1.0000
vn -0.0368 -0.0027 -0.9993
vn 0.9999 -0.0026 -0.0129
vn 1.0000 -0.0014 -0.0041
vn 0.9997 -0.0039 -0.0223
vn 0.0205 0.0049 0.9998
vn 0.0041 0.0072 1.0000
vn 0.0206 0.0049 0.9998
vn 0.0368 0.0025 0.9993
vn -0.9999 0.0029 0.0130
vn -1.0000 0.0041 0.0041
vn -0.9998 0.0016 0.0218
vn 0.0674 0.9674 0.2441
vn -0.0027 -1.0000 0.0027
vn 0.9927 -0.1207 -0.0031
vn 0.9902 -0.1394 -0.0006
vn 0.9948 -0.1020 -0.0057
vn 0.1838 0.9826 -0.0264
vn 0.1806 0.9832 -0.0267
vn 0.1871 0.9820 -0.0260
vn -0.9957 0.0922 0.0019
vn -0.9958 0.0914 0.0018
vn -0.9957 0.0924 0.0019
vn -0.9956 0.0932 0.0020
vn -0.1890 -0.9816 0.0260
vn -0.1887 -0.9817 0.0260
vn -0.0035 -0.0634 -0.9980
vn -0.0049 -0.0616 -0.9981
vn -0.0036 -0.0634 -0.9980
vn -0.0022 -0.0652 -0.9979
vn -0.0047 0.0573 0.9983
vn 0.0064 0.0655 0.9978
vn -0.0153 0.0495 0.9987
vn 1.0000 -0.0027 -0.0041
vn 0.0026 1.0000 -0.0000
vn 0.0027 1.0000 -0.0000
vn -0.9999 0.0083 0.0066
vn -0.9999 0.0139 0.0072
vn -1.0000 0.0027 0.0060
vn -0.0026 -1.0000 -0.0000
vn 0.0138 -0.0000 -0.9999
vn -0.0054 -0.0021 1.0000
vn -0.0076 -0.0042 1.0000
vn -0.0032 -0.0000 1.0000
vt 0.243701 0.000000
vt 0.443701 0.000000
vt 0.453146 1.495130
vt 0.254156 1.496827
vt 0.499587 -0.000000
vt 0.699587 -0.000000
vt 0.709005 1.496968
vt 0.510158 1.504805
vt 0.860416 0.000000
vt 1.060416 0.000000
vt 1.069861 1.504945
vt 0.870871 1.502965
vt 0.389922 -0.000000
vt 0.589922 -0.000000
vt 0.599340 1.503105
vt 0.400492 1.494991
vt 0.198997 0.219000
vt 0.000000 0.198997
vt 0.020003 0.000000
vt 0.219000 0.020003
vt 0.000000 0.000000
vt 0.200000 0.000000
vt 0.200000 0.200000
vt 0.000000 0.200000
vt 0.328997 0.000000
vt 0.528997 0.000000
vt 0.528997 1.815921
vt 0.328997 1.815921
vt 0.560512 0.000000
vt 0.751403 0.000000
vt 0.751403 1.815921
vt 0.560512 1.815921
vt 0.865139 0.000000
vt 1.065139 0.000000
vt 1.065139 1.815921
vt 0.865139 1.815921
vt 0.109665 0.000000
vt 0.300555 0.000000
vt 0.300555 1.815921
vt 0.109665 1.815921
vt 0.200000 0.190890
vt 0.000000 0.190890
vt 0.200000 0.000000
vt 0.200000 0.190890
vt 0.000000 0.190890
vt 0.670178 0.000000
vt 0.870178 0.000000
vt 0.870178 1.815921
vt 0.670178 1.815921
vt 0.194961 0.000000
vt 0.385851 0.000000
vt 0.385851 1.815921
vt 0.194961 1.815921
vt 0.085296 0.000000
vt 0.285296 0.000000
vt 0.285295 1.815921
vt 0.085296 1.815921
vt 0.353366 0.000000
vt 0.544257 0.000000
vt 0.544257 1.815921
vt 0.353366 1.815921
vt 0.480256 0.190890
vt 0.280256 0.190890
vt 0.280256 0.000000
vt 0.480256 0.000000
vt 0.842152 0.190890
vt 0.642152 0.190890
vt 0.642152 -0.000000
vt 0.842152 -0.000000
vt 0.200000 0.191243
vt 0.000000 0.191243
vt 0.272915 0.000000
vt 0.472915 0.000000
vt 0.472566 1.445381
vt 0.273264 1.462069
vt 0.765922 0.000000
vt 0.965922 0.000000
vt 0.965922 1.462069
vt 0.765922 1.462069
vt 0.396167 0.000000
vt 0.596167 0.000000
vt 0.595818 1.462069
vt 0.396515 1.445381
vt 0.554633 0.000000
vt 0.754633 0.000000
vt 0.754633 1.445381
vt 0.554633 1.445381
vt 0.791673 0.049865
vt 0.949917 -0.072442
vt 1.072224 0.085802
vt 0.913980 0.208109
vt 0.308130 0.000000
vt 0.508130 0.000000
vt 0.508130 0.200000
vt 0.308130 0.200000
vt 0.268071 0.000000
vt 0.468071 0.000000
vt 0.469588 1.473068
vt 0.270026 1.461537
vt 0.694548 -0.000000
vt 0.894548 -0.000000
vt 0.894659 1.461552
vt 0.700967 1.411836
vt 0.645808 -0.000000
vt 0.845808 -0.000000
vt 0.847325 1.411854
vt 0.647763 1.423327
vt 0.463032 -0.000000
vt 0.663032 -0.000000
vt 0.663143 1.423343
vt 0.469451 1.473051
vt 0.199887 0.474696
vt 0.000000 0.467958
vt 0.006738 0.268071
vt 0.206625 0.274809
vt 0.000000 0.560512
vt 0.200000 0.560512
vt 0.200000 0.760512
vt 0.000000 0.760512
vt 0.597068 0.000000
vt 0.797068 0.000000
vt 0.797068 1.820984
vt 0.597068 1.820984
vt 0.438662 -0.000000
vt 0.629552 -0.000000
vt 0.629552 1.820984
vt 0.438662 1.820984
vt 0.194961 -0.000000
vt 0.394961 -0.000000
vt 0.394961 1.820984
vt 0.194961 1.820984
vt 0.389922 0.000000
vt 0.580812 0.000000
vt 0.580812 1.820984
vt 0.389922 1.820984
vt 0.463955 -0.591169
vt 0.663955 -0.591169
vt 0.663955 1.224752
vt 0.463955 1.224752
vt 0.763281 0.284360
vt 0.954171 0.284360
vt 0.954171 2.100280
vt 0.763281 2.100280
vt 0.217011 -0.987776
vt 0.417011 -0.987776
vt 0.417011 0.828145
vt 0.217011 0.828145
vt 0.576202 0.097281
vt 0.767093 0.097281
vt 0.767092 1.913202
vt 0.576202 1.913202
vt 0.985730 0.190890
vt 0.785730 0.190890
vt 0.785730 0.000000
vt 0.985730 0.000000
vt 0.381641 0.471438
vt 0.581641 0.471438
vt 0.581641 0.662328
vt 0.381641 0.662328
s 1
usemtl WoodLog_Plank
f 2/1/1 1/2/2 3/3/3
f 4/4/4 2/1/1 3/3/3
f 6/5/5 5/6/6 7/7/7
f 8/8/8 6/5/5 7/7/7
f 10/9/9 9/10/10 11/11/9
f 12/12/11 10/9/9 11/11/9
f 14/13/12 13/14/13 15/15/12
f 16/16/14 14/13/12 15/15/12
f 18/17/15 17/18/15 19/19/15
f 20/20/15 18/17/15 19/19/15
f 22/21/16 21/22/16 23/23/16
f 24/24/16 22/21/16 23/23/16
f 26/25/17 25/26/17 27/27/17
f 28/28/17 26/25/17 27/27/17
f 30/29/18 29/30/18 31/31/19
f 32/32/20 30/29/18 31/31/19
f 34/33/21 33/34/21 35/35/21
f 36/36/21 34/33/21 35/35/21
f 38/37/22 37/38/22 39/39/23
f 40/40/24 38/37/22 39/39/23
f 42/41/25 41/42/26 43/21/25
f 44/43/25 42/41/25 43/21/25
f 46/21/27 45/22/27 47/44/27
f 48/45/28 46/21/27 47/44/27
f 50/46/29 49/47/30 51/48/29
f 52/49/31 50/46/29 51/48/29
f 54/50/32 53/51/32 55/52/33
f 56/53/33 54/50/32 55/52/33
f 58/54/21 57/55/21 59/56/21
f 60/57/21 58/54/21 59/56/21
f 62/58/34 61/59/34 63/60/35
f 64/61/35 62/58/34 63/60/35
f 66/62/36 65/63/36 67/64/36
f 68/65/37 66/62/36 67/64/36
f 70/21/38 69/22/39 71/44/40
f 72/45/41 70/21/38 71/44/40
f 74/66/42 73/67/42 75/68/42
f 76/69/42 74/66/42 75/68/42
f 78/70/43 77/71/43 79/21/43
f 80/43/43 78/70/43 79/21/43
f 82/72/43 81/73/43 83/74/43
f 84/75/43 82/72/43 83/74/43
f 86/76/44 85/77/44 87/78/44
f 88/79/44 86/76/44 87/78/44
f 90/80/45 89/81/45 91/82/45
f 92/83/45 90/80/45 91/82/45
f 94/84/46 93/85/46 95/86/46
f 96/87/46 94/84/46 95/86/46
f 98/88/47 97/89/47 99/90/47
f 100/91/47 98/88/47 99/90/47
f 102/92/48 101/93/48 103/94/48
f 104/95/48 102/92/48 103/94/48
f 106/96/49 105/97/50 107/98/49
f 108/99/51 106/96/49 107/98/49
f 110/100/52 109/101/53 111/102/52
f 112/103/54 110/100/52 111/102/52
f 114/104/55 113/105/56 115/106/57
f 116/107/58 114/104/55 115/106/57
f 118/108/59 117/109/60 119/110/59
f 120/111/61 118/108/59 119/110/59
f 122/112/62 121/113/62 123/114/62
f 124/115/62 122/112/62 123/114/62
f 126/116/63 125/117/63 127/118/63
f 128/119/63 126/116/63 127/118/63
f 130/120/64 129/121/65 131/122/64
f 132/123/66 130/120/64 131/122/64
f 134/124/67 133/125/68 135/126/67
f 136/127/69 134/124/67 135/126/67
f 138/128/70 137/129/71 139/130/72
f 140/131/73 138/128/70 139/130/72
f 142/132/74 141/133/74 143/134/75
f 144/135/75 142/132/74 143/134/75
f 146/41/76 145/42/77 147/21/78
f 148/43/79 146/41/76 147/21/78
f 150/21/80 149/22/81 151/44/80
f 152/45/82 150/21/80 151/44/80
f 154/136/83 153/137/83 155/138/83
f 156/139/83 154/136/83 155/138/83
f 158/140/84 157/141/85 159/142/84
f 160/143/84 158/140/84 159/142/84
f 162/144/86 161/145/87 163/146/86
f 164/147/88 162/144/86 163/146/86
f 166/148/89 165/149/89 167/150/89
f 168/151/89 166/148/89 167/150/89
f 170/152/90 169/153/90 171/154/90
f 172/155/90 170/152/90 171/154/90
f 174/156/91 173/157/92 175/158/91
f 176/159/93 174/156/91 175/158/91
o fence.001
v 0.000000 0.000000 -10.433351
v 0.199997 -0.000540 -10.434176
v -0.005378 1.495136 -10.426797
v 0.193532 1.496383 -10.447613
v 0.199997 -0.000540 -10.434176
v 0.183692 0.000000 -10.189541
v 0.193532 1.496383 -10.447613
v 0.197141 1.504842 -10.204233
v 0.183692 0.000000 -10.189541
v -0.016305 0.000540 -10.188715
v 0.197141 1.504842 -10.204233
v -0.001768 1.503595 -10.183418
v -0.016305 0.000540 -10.188715
v 0.000000 0.000000 -10.433351
v -0.001768 1.503595 -10.183418
v -0.005378 1.495136 -10.426797
v -0.005378 1.495136 -10.426797
v 0.193532 1.496383 -10.447613
v -0.001768 1.503595 -10.183418
v 0.197141 1.504842 -10.204233
v -0.016305 0.000540 -10.188715
v 0.183692 0.000000 -10.189541
v 0.000000 0.000000 -10.433351
v 0.199997 -0.000540 -10.434176
v 0.205145 0.976586 -8.440310
v 0.205580 1.176499 -8.446194
v 0.172646 0.923245 -10.255157
v 0.173082 1.123158 -10.261040
v 0.205580 1.176499 -8.446194
v 0.000781 1.177014 -8.445849
v 0.173082 1.123158 -10.261040
v -0.006863 1.123674 -10.260970
v 0.000781 1.177014 -8.445849
v 0.000266 0.977102 -8.439972
v -0.006863 1.123674 -10.260970
v -0.007380 0.923761 -10.255094
v 0.000266 0.977102 -8.439972
v 0.205145 0.976586 -8.440310
v -0.007380 0.923761 -10.255094
v 0.172646 0.923245 -10.255157
v 0.172646 0.923245 -10.255157
v 0.173082 1.123158 -10.261040
v -0.007380 0.923761 -10.255094
v -0.006863 1.123674 -10.260970
v 0.000266 0.977102 -8.439972
v 0.000781 1.177014 -8.445849
v 0.205145 0.976586 -8.440310
v 0.205580 1.176499 -8.446194
v 0.215798 0.400775 -8.429790
v 0.213900 0.600770 -8.429449
v 0.201755 0.412411 -10.248180
v 0.202236 0.612406 -10.246925
v 0.213900 0.600770 -8.429449
v 0.012766 0.601286 -8.432592
v 0.202236 0.612406 -10.246925
v 0.005295 0.612922 -10.248461
v 0.012766 0.601286 -8.432592
v 0.012222 0.401291 -8.433873
v 0.005295 0.612922 -10.248461
v 0.004748 0.412927 -10.249741
v 0.012222 0.401291 -8.433873
v 0.215798 0.400775 -8.429790
v 0.004748 0.412927 -10.249741
v 0.201755 0.412411 -10.248180
v 0.201755 0.412411 -10.248180
v 0.202236 0.612406 -10.246925
v 0.004748 0.412927 -10.249741
v 0.005295 0.612922 -10.248461
v 0.012222 0.401291 -8.433873
v 0.012766 0.601286 -8.432592
v 0.215798 0.400775 -8.429790
v 0.213900 0.600770 -8.429449
v 0.226446 1.015573 -6.279850
v 0.211404 1.214999 -6.278097
v 0.036099 1.001208 -6.279023
v 0.021057 1.200633 -6.277270
v 0.218991 0.464799 -6.278450
v 0.219530 0.664798 -6.278993
v 0.027751 0.465316 -6.277660
v 0.028289 0.665314 -6.278202
v 0.029537 0.010000 -6.497610
v 0.229534 0.009460 -6.498437
v 0.033775 1.455370 -6.501532
v 0.233120 1.471519 -6.502402
v 0.229534 0.009460 -6.498437
v 0.217231 0.010000 -6.264228
v 0.233120 1.471519 -6.502402
v 0.220816 1.472059 -6.268194
v 0.217231 0.010000 -6.264228
v 0.017234 0.010541 -6.263402
v 0.220816 1.472059 -6.268194
v 0.021470 1.455910 -6.267325
v 0.017234 0.010541 -6.263402
v 0.029537 0.010000 -6.497610
v 0.021470 1.455910 -6.267325
v 0.033775 1.455370 -6.501532
v 0.033775 1.455370 -6.501532
v 0.233120 1.471519 -6.502402
v 0.021470 1.455910 -6.267325
v 0.220816 1.472059 -6.268194
v 0.017234 0.010541 -6.263402
v 0.217231 0.010000 -6.264228
v 0.029537 0.010000 -6.497610
v 0.229534 0.009460 -6.498437
v 0.008100 0.010000 -8.473373
v 0.208097 0.009460 -8.474200
v 0.010573 1.483065 -8.470945
v 0.210074 1.471005 -8.478268
v 0.208097 0.009460 -8.474200
v 0.208925 0.010000 -8.274202
v 0.210074 1.471005 -8.478268
v 0.214213 1.421808 -8.284458
v 0.208925 0.010000 -8.274202
v 0.008928 0.010540 -8.273376
v 0.214213 1.421808 -8.284458
v 0.014713 1.433867 -8.277135
v 0.008928 0.010540 -8.273376
v 0.008100 0.010000 -8.473373
v 0.014713 1.433867 -8.277135
v 0.010573 1.483065 -8.470945
v 0.010573 1.483065 -8.470945
v 0.210074 1.471005 -8.478268
v 0.014713 1.433867 -8.277135
v 0.214213 1.421808 -8.284458
v 0.008928 0.010540 -8.273376
v 0.208925 0.010000 -8.274202
v 0.008100 0.010000 -8.473373
v 0.208097 0.009460 -8.474200
v 0.197441 0.418869 -6.467278
v 0.225057 0.615100 -6.476577
v 0.189794 0.372111 -8.287646
v 0.209837 0.568343 -8.299850
v 0.225057 0.615100 -6.476577
v 0.025391 0.651653 -6.481452
v 0.209837 0.568343 -8.299850
v 0.017743 0.604896 -8.301820
v 0.025391 0.651653 -6.481452
v 0.007403 0.455421 -6.468459
v 0.017743 0.604896 -8.301820
v -0.000594 0.408664 -8.288961
v 0.007403 0.455421 -6.468459
v 0.197441 0.418869 -6.467278
v -0.000594 0.408664 -8.288961
v 0.189794 0.372111 -8.287646
v 0.189794 0.372111 -8.287646
v 0.209837 0.568343 -8.299850
v -0.000594 0.408664 -8.288961
v 0.017743 0.604896 -8.301820
v 0.007403 0.455421 -6.468459
v 0.025391 0.651653 -6.481452
v 0.197441 0.418869 -6.467278
v 0.225057 0.615100 -6.476577
v 0.217254 0.990025 -6.473958
v 0.217794 1.190024 -6.473959
v 0.209750 0.990025 -8.289864
v 0.210289 1.190024 -8.289865
v 0.217794 1.190024 -6.473959
v 0.023234 1.190540 -6.474580
v 0.210289 1.190024 -8.289865
v 0.010132 1.190540 -8.292635
v 0.023234 1.190540 -6.474580
v 0.020440 0.990541 -6.475443
v 0.010132 1.190540 -8.292635
v 0.009591 0.990541 -8.292633
v 0.020440 0.990541 -6.475443
v 0.217254 0.990025 -6.473958
v 0.009591 0.990541 -8.292633
v 0.209750 0.990025 -8.289864
v 0.209750 0.990025 -8.289864
v 0.210289 1.190024 -8.289865
v 0.009591 0.990541 -8.292633
v 0.010132 1.190540 -8.292635
v 0.020440 0.990541 -6.475443
v 0.023234 1.190540 -6.474580
v 0.217254 0.990025 -6.473958
v 0.217794 1.190024 -6.473959
vn -0.0541 -0.0025 -0.9985
vn -0.0041 0.0044 -1.0000
vn -0.0542 -0.0025 -0.9985
vn -0.1040 -0.0094 -0.9945
vn 0.9997 -0.0021 0.0261
vn 0.9978 0.0049 0.0665
vn 0.9997 -0.0021 0.0260
vn 0.9999 -0.0091 -0.0145
vn 0.0542 0.0026 0.9985
vn 0.0042 0.0097 0.9999
vn 0.1041 -0.0045 0.9946
vn -0.9997 0.0032 -0.0261
vn -0.9977 0.0099 -0.0665
vn -0.9999 -0.0037 0.0150
vn -0.0099 0.9994 -0.0346
vn -0.0027 -1.0000 0.0020
vn 0.9998 -0.0027 -0.0178
vn 0.0025 0.9996 -0.0294
vn 0.0028 0.9996 -0.0294
vn 0.0029 0.9996 -0.0294
vn -1.0000 0.0027 0.0041
vn -0.0025 -0.9996 0.0294
vn -0.0028 -0.9996 0.0294
vn -0.0029 -0.9996 0.0294
vn -0.0005 -0.0294 -0.9996
vn -0.0004 -0.0294 -0.9996
vn 0.0017 0.0294 0.9996
vn 0.0018 0.0294 0.9996
vn 1.0000 0.0036 -0.0070
vn 0.9999 0.0095 -0.0077
vn 1.0000 -0.0024 -0.0064
vn 0.0025 1.0000 0.0064
vn 0.0026 1.0000 0.0064
vn -0.0024 -1.0000 -0.0064
vn -0.0026 -1.0000 -0.0064
vn 0.0079 0.0063 -0.9999
vn 0.0078 0.0064 -0.9999
vn -0.0179 -0.0041 0.9998
vn -0.0201 -0.0063 0.9998
vn -0.0178 -0.0041 0.9998
vn -0.0156 -0.0019 0.9999
vn -0.0050 0.0084 -1.0000
vn -0.0041 -0.0027 -1.0000
vn 0.9986 -0.0023 0.0525
vn 0.0041 0.0027 1.0000
vn -0.9986 0.0028 -0.0525
vn -0.0808 0.9967 -0.0065
vn -0.0027 -1.0000 0.0022
vn -0.0204 -0.0005 -0.9998
vn -0.0041 0.0017 -1.0000
vn -0.0368 -0.0027 -0.9993
vn 0.9999 -0.0026 -0.0129
vn 1.0000 -0.0014 -0.0041
vn 0.9997 -0.0039 -0.0223
vn 0.0205 0.0049 0.9998
vn 0.0042 0.0072 1.0000
vn 0.0206 0.0049 0.9998
vn 0.0368 0.0025 0.9993
vn -0.9999 0.0029 0.0130
vn -1.0000 0.0041 0.0041
vn -0.9998 0.0016 0.0218
vn 0.0674 0.9674 0.2441
vn -0.0027 -1.0000 0.0027
vn 0.9927 -0.1207 -0.0031
vn 0.9902 -0.1394 -0.0006
vn 0.9948 -0.1020 -0.0057
vn 0.1838 0.9826 -0.0264
vn 0.1806 0.9832 -0.0267
vn 0.1871 0.9820 -0.0260
vn -0.9957 0.0922 0.0019
vn -0.9958 0.0914 0.0018
vn -0.9957 0.0924 0.0019
vn -0.9956 0.0932 0.0020
vn -0.1890 -0.9816 0.0260
vn -0.1887 -0.9817 0.0260
vn -0.0035 -0.0634 -0.9980
vn -0.0049 -0.0616 -0.9981
vn -0.0036 -0.0634 -0.9980
vn -0.0022 -0.0652 -0.9979
vn -0.0047 0.0573 0.9983
vn 0.0064 0.0655 0.9978
vn -0.0153 0.0495 0.9987
vn 1.0000 -0.0027 -0.0041
vn 0.0026 1.0000 -0.0000
vn 0.0027 1.0000 -0.0000
vn -0.9999 0.0083 0.0066
vn -0.9999 0.0139 0.0072
vn -1.0000 0.0027 0.0060
vn -0.0026 -1.0000 -0.0000
vn 0.0138 -0.0000 -0.9999
vn -0.0054 -0.0021 1.0000
vn -0.0076 -0.0042 1.0000
vn -0.0032 -0.0000 1.0000
vt 0.243701 0.000000
vt 0.443701 0.000000
vt 0.453146 1.495130
vt 0.254156 1.496827
vt 0.499587 -0.000000
vt 0.699587 -0.000000
vt 0.709005 1.496968
vt 0.510158 1.504805
vt 0.860416 0.000000
vt 1.060416 0.000000
vt 1.069861 1.504945
vt 0.870871 1.502965
vt 0.389922 -0.000000
vt 0.589922 -0.000000
vt 0.599340 1.503105
vt 0.400492 1.494991
vt 0.198997 0.219000
vt 0.000000 0.198997
vt 0.020003 0.000000
vt 0.219000 0.020003
vt 0.000000 0.000000
vt 0.200000 0.000000
vt 0.200000 0.200000
vt 0.000000 0.200000
vt 0.328997 0.000000
vt 0.528997 0.000000
vt 0.528997 1.815921
vt 0.328997 1.815921
vt 0.560512 0.000000
vt 0.751403 0.000000
vt 0.751403 1.815921
vt 0.560512 1.815921
vt 0.865139 0.000000
vt 1.065139 0.000000
vt 1.065139 1.815921
vt 0.865139 1.815921
vt 0.109665 0.000000
vt 0.300555 0.000000
vt 0.300555 1.815921
vt 0.109665 1.815921
vt 0.200000 0.190890
vt 0.000000 0.190890
vt 0.200000 0.000000
vt 0.200000 0.190890
vt 0.000000 0.190890
vt 0.670178 0.000000
vt 0.870178 0.000000
vt 0.870178 1.815921
vt 0.670178 1.815921
vt 0.194961 0.000000
vt 0.385851 0.000000
vt 0.385851 1.815921
vt 0.194961 1.815921
vt 0.085296 0.000000
vt 0.285296 0.000000
vt 0.285295 1.815921
vt 0.085296 1.815921
vt 0.353366 0.000000
vt 0.544257 0.000000
vt 0.544257 1.815921
vt 0.353366 1.815921
vt 0.480256 0.190890
vt 0.280256 0.190890
vt 0.280256 0.000000
vt 0.480256 0.000000
vt 0.842152 0.190890
vt 0.642152 0.190890
vt 0.642152 -0.000000
vt 0.842152 -0.000000
vt 0.200000 0.191243
vt 0.000000 0.191243
vt 0.272915 0.000000
vt 0.472915 0.000000
vt 0.472566 1.445381
vt 0.273264 1.462069
vt 0.765922 0.000000
vt 0.965922 0.000000
vt 0.965922 1.462069
vt 0.765922 1.462069
vt 0.396167 0.000000
vt 0.596167 0.000000
vt 0.595818 1.462069
vt 0.396515 1.445381
vt 0.554633 0.000000
vt 0.754633 0.000000
vt 0.754633 1.445381
vt 0.554633 1.445381
vt 0.791673 0.049865
vt 0.949917 -0.072442
vt 1.072224 0.085802
vt 0.913980 0.208109
vt 0.308130 0.000000
vt 0.508130 0.000000
vt 0.508130 0.200000
vt 0.308130 0.200000
vt 0.268071 0.000000
vt 0.468071 0.000000
vt 0.469588 1.473068
vt 0.270026 1.461537
vt 0.694548 -0.000000
vt 0.894548 -0.000000
vt 0.894659 1.461552
vt 0.700967 1.411836
vt 0.645808 -0.000000
vt 0.845808 -0.000000
vt 0.847325 1.411854
vt 0.647763 1.423327
vt 0.463032 -0.000000
vt 0.663032 -0.000000
vt 0.663143 1.423343
vt 0.469451 1.473051
vt 0.199887 0.474696
vt 0.000000 0.467958
vt 0.006738 0.268071
vt 0.206625 0.274809
vt 0.000000 0.560512
vt 0.200000 0.560512
vt 0.200000 0.760512
vt 0.000000 0.760512
vt 0.597068 0.000000
vt 0.797068 0.000000
vt 0.797068 1.820984
vt 0.597068 1.820984
vt 0.438662 -0.000000
vt 0.629552 -0.000000
vt 0.629552 1.820984
vt 0.438662 1.820984
vt 0.194961 -0.000000
vt 0.394961 -0.000000
vt 0.394961 1.820984
vt 0.194961 1.820984
vt 0.389922 0.000000
vt 0.580812 0.000000
vt 0.580812 1.820984
vt 0.389922 1.820984
vt 0.463955 -0.591169
vt 0.663955 -0.591169
vt 0.663955 1.224752
vt 0.463955 1.224752
vt 0.763281 0.284360
vt 0.954171 0.284360
vt 0.954171 2.100280
vt 0.763281 2.100280
vt 0.217011 -0.987776
vt 0.417011 -0.987776
vt 0.417011 0.828145
vt 0.217011 0.828145
vt 0.576202 0.097281
vt 0.767093 0.097281
vt 0.767092 1.913202
vt 0.576202 1.913202
vt 0.985730 0.190890
vt 0.785730 0.190890
vt 0.785730 0.000000
vt 0.985730 0.000000
vt 0.381641 0.471438
vt 0.581641 0.471438
vt 0.581641 0.662328
vt 0.381641 0.662328
s 1
usemtl WoodLog_Plank.001
f 178/160/94 177/161/95 179/162/96
f 180/163/97 178/160/94 179/162/96
f 182/164/98 181/165/99 183/166/100
f 184/167/101 182/164/98 183/166/100
f 186/168/102 185/169/103 187/170/102
f 188/171/104 186/168/102 187/170/102
f 190/172/105 189/173/106 191/174/105
f 192/175/107 190/172/105 191/174/105
f 194/176/108 193/177/108 195/178/108
f 196/179/108 194/176/108 195/178/108
f 198/180/109 197/181/109 199/182/109
f 200/183/109 198/180/109 199/182/109
f 202/184/110 201/185/110 203/186/110
f 204/187/110 202/184/110 203/186/110
f 206/188/111 205/189/111 207/190/112
f 208/191/113 206/188/111 207/190/112
f 210/192/114 209/193/114 211/194/114
f 212/195/114 210/192/114 211/194/114
f 214/196/115 213/197/115 215/198/116
f 216/199/117 214/196/115 215/198/116
f 218/200/118 217/201/119 219/180/118
f 220/202/118 218/200/118 219/180/118
f 222/180/120 221/181/120 223/203/120
f 224/204/121 222/180/120 223/203/120
f 226/205/122 225/206/123 227/207/122
f 228/208/124 226/205/122 227/207/122
f 230/209/125 229/210/125 231/211/126
f 232/212/126 230/209/125 231/211/126
f 234/213/114 233/214/114 235/215/114
f 236/216/114 234/213/114 235/215/114
f 238/217/127 237/218/127 239/219/128
f 240/220/128 238/217/127 239/219/128
f 242/221/129 241/222/129 243/223/129
f 244/224/130 242/221/129 243/223/129
f 246/180/131 245/181/132 247/203/133
f 248/204/134 246/180/131 247/203/133
f 250/225/135 249/226/135 251/227/135
f 252/228/135 250/225/135 251/227/135
f 254/229/136 253/230/136 255/180/136
f 256/202/136 254/229/136 255/180/136
f 258/231/136 257/232/136 259/233/136
f 260/234/136 258/231/136 259/233/136
f 262/235/137 261/236/137 263/237/137
f 264/238/137 262/235/137 263/237/137
f 266/239/138 265/240/138 267/241/138
f 268/242/138 266/239/138 267/241/138
f 270/243/139 269/244/139 271/245/139
f 272/246/139 270/243/139 271/245/139
f 274/247/140 273/248/140 275/249/140
f 276/250/140 274/247/140 275/249/140
f 278/251/141 277/252/141 279/253/141
f 280/254/141 278/251/141 279/253/141
f 282/255/142 281/256/143 283/257/142
f 284/258/144 282/255/142 283/257/142
f 286/259/145 285/260/146 287/261/145
f 288/262/147 286/259/145 287/261/145
f 290/263/148 289/264/149 291/265/150
f 292/266/151 290/263/148 291/265/150
f 294/267/152 293/268/153 295/269/152
f 296/270/154 294/267/152 295/269/152
f 298/271/155 297/272/155 299/273/155
f 300/274/155 298/271/155 299/273/155
f 302/275/156 301/276/156 303/277/156
f 304/278/156 302/275/156 303/277/156
f 306/279/157 305/280/158 307/281/157
f 308/282/159 306/279/157 307/281/157
f 310/283/160 309/284/161 311/285/160
f 312/286/162 310/283/160 311/285/160
f 314/287/163 313/288/164 315/289/165
f 316/290/166 314/287/163 315/289/165
f 318/291/167 317/292/167 319/293/168
f 320/294/168 318/291/167 319/293/168
f 322/200/169 321/201/170 323/180/171
f 324/202/172 322/200/169 323/180/171
f 326/180/173 325/181/174 327/203/173
f 328/204/175 326/180/173 327/203/173
f 330/295/176 329/296/176 331/297/176
f 332/298/176 330/295/176 331/297/176
f 334/299/177 333/300/178 335/301/177
f 336/302/177 334/299/177 335/301/177
f 338/303/179 337/304/180 339/305/179
f 340/306/181 338/303/179 339/305/179
f 342/307/182 341/308/182 343/309/182
f 344/310/182 342/307/182 343/309/182
f 346/311/183 345/312/183 347/313/183
f 348/314/183 346/311/183 347/313/183
f 350/315/184 349/316/185 351/317/184
f 352/318/186 350/315/184 351/317/184
o fence.003
v 0.000000 0.000000 1.966651
v 0.199998 -0.000540 1.965824
v -0.005378 1.495136 1.973204
v 0.193532 1.496383 1.952389
v 0.199998 -0.000540 1.965824
v 0.183692 0.000000 2.210460
v 0.193532 1.496383 1.952389
v 0.197141 1.504842 2.195768
v 0.183692 0.000000 2.210460
v -0.016306 0.000540 2.211286
v 0.197141 1.504842 2.195768
v -0.001768 1.503595 2.216583
v -0.016306 0.000540 2.211286
v 0.000000 0.000000 1.966651
v -0.001768 1.503595 2.216583
v -0.005378 1.495136 1.973204
v -0.005378 1.495136 1.973204
v 0.193532 1.496383 1.952389
v -0.001768 1.503595 2.216583
v 0.197141 1.504842 2.195768
v -0.016306 0.000540 2.211286
v 0.183692 0.000000 2.210460
v 0.000000 0.000000 1.966651
v 0.199998 -0.000540 1.965824
v 0.205145 0.976586 3.959691
v 0.205580 1.176499 3.953807
v 0.172646 0.923245 2.144844
v 0.173082 1.123158 2.138961
v 0.205580 1.176499 3.953807
v 0.000781 1.177014 3.954152
v 0.173082 1.123158 2.138961
v -0.006863 1.123674 2.139031
v 0.000781 1.177014 3.954152
v 0.000266 0.977102 3.960028
v -0.006863 1.123674 2.139031
v -0.007380 0.923761 2.144907
v 0.000266 0.977102 3.960028
v 0.205145 0.976586 3.959691
v -0.007380 0.923761 2.144907
v 0.172646 0.923245 2.144844
v 0.172646 0.923245 2.144844
v 0.173082 1.123158 2.138961
v -0.007380 0.923761 2.144907
v -0.006863 1.123674 2.139031
v 0.000266 0.977102 3.960028
v 0.000781 1.177014 3.954152
v 0.205145 0.976586 3.959691
v 0.205580 1.176499 3.953807
v 0.215798 0.400775 3.970211
v 0.213900 0.600770 3.970552
v 0.201755 0.412411 2.151820
v 0.202236 0.612406 2.153075
v 0.213900 0.600770 3.970552
v 0.012766 0.601286 3.967409
v 0.202236 0.612406 2.153075
v 0.005295 0.612922 2.151540
v 0.012766 0.601286 3.967409
v 0.012222 0.401291 3.966128
v 0.005295 0.612922 2.151540
v 0.004748 0.412927 2.150260
v 0.012222 0.401291 3.966128
v 0.215798 0.400775 3.970211
v 0.004748 0.412927 2.150260
v 0.201755 0.412411 2.151820
v 0.201755 0.412411 2.151820
v 0.202236 0.612406 2.153075
v 0.004748 0.412927 2.150260
v 0.005295 0.612922 2.151540
v 0.012222 0.401291 3.966128
v 0.012766 0.601286 3.967409
v 0.215798 0.400775 3.970211
v 0.213900 0.600770 3.970552
v 0.226446 1.015574 6.120152
v 0.211404 1.214999 6.121904
v 0.036099 1.001208 6.120978
v 0.021057 1.200634 6.122731
v 0.218992 0.464799 6.121551
v 0.219530 0.664798 6.121008
v 0.027752 0.465316 6.122341
v 0.028290 0.665314 6.121799
v 0.029537 0.010000 5.902391
v 0.229534 0.009460 5.901564
v 0.033775 1.455370 5.898469
v 0.233120 1.471519 5.897599
v 0.229534 0.009460 5.901564
v 0.217231 0.010000 6.135773
v 0.233120 1.471519 5.897599
v 0.220816 1.472059 6.131807
v 0.217231 0.010000 6.135773
v 0.017234 0.010541 6.136599
v 0.220816 1.472059 6.131807
v 0.021471 1.455910 6.132676
v 0.017234 0.010541 6.136599
v 0.029537 0.010000 5.902391
v 0.021471 1.455910 6.132676
v 0.033775 1.455370 5.898469
v 0.033775 1.455370 5.898469
v 0.233120 1.471519 5.897599
v 0.021471 1.455910 6.132676
v 0.220816 1.472059 6.131807
v 0.017234 0.010541 6.136599
v 0.217231 0.010000 6.135773
v 0.029537 0.010000 5.902391
v 0.229534 0.009460 5.901564
v 0.008100 0.010000 3.926627
v 0.208097 0.009460 3.925801
v 0.010573 1.483065 3.929056
v 0.210074 1.471005 3.921733
v 0.208097 0.009460 3.925801
v 0.208925 0.010000 4.125799
v 0.210074 1.471005 3.921733
v 0.214213 1.421808 4.115543
v 0.208925 0.010000 4.125799
v 0.008928 0.010540 4.126625
v 0.214213 1.421808 4.115543
v 0.014713 1.433867 4.122866
v 0.008928 0.010540 4.126625
v 0.008100 0.010000 3.926627
v 0.014713 1.433867 4.122866
v 0.010573 1.483065 3.929056
v 0.010573 1.483065 3.929056
v 0.210074 1.471005 3.921733
v 0.014713 1.433867 4.122866
v 0.214213 1.421808 4.115543
v 0.008928 0.010540 4.126625
v 0.208925 0.010000 4.125799
v 0.008100 0.010000 3.926627
v 0.208097 0.009460 3.925801
v 0.197442 0.418869 5.932722
v 0.225057 0.615100 5.923424
v 0.189794 0.372111 4.112355
v 0.209837 0.568343 4.100151
v 0.225057 0.615100 5.923424
v 0.025391 0.651653 5.918548
v 0.209837 0.568343 4.100151
v 0.017743 0.604896 4.098180
v 0.025391 0.651653 5.918548
v 0.007403 0.455421 5.931542
v 0.017743 0.604896 4.098180
v -0.000594 0.408664 4.111039
v 0.007403 0.455421 5.931542
v 0.197442 0.418869 5.932722
v -0.000594 0.408664 4.111039
v 0.189794 0.372111 4.112355
v 0.189794 0.372111 4.112355
v 0.209837 0.568343 4.100151
v -0.000594 0.408664 4.111039
v 0.017743 0.604896 4.098180
v 0.007403 0.455421 5.931542
v 0.025391 0.651653 5.918548
v 0.197442 0.418869 5.932722
v 0.225057 0.615100 5.923424
v 0.217254 0.990025 5.926044
v 0.217794 1.190024 5.926041
v 0.209749 0.990025 4.110138
v 0.210290 1.190024 4.110136
v 0.217794 1.190024 5.926041
v 0.023234 1.190540 5.925421
v 0.210290 1.190024 4.110136
v 0.010132 1.190540 4.107366
v 0.023234 1.190540 5.925421
v 0.020440 0.990541 5.924558
v 0.010132 1.190540 4.107366
v 0.009591 0.990541 4.107368
v 0.020440 0.990541 5.924558
v 0.217254 0.990025 5.926044
v 0.009591 0.990541 4.107368
v 0.209749 0.990025 4.110138
v 0.209749 0.990025 4.110138
v 0.210290 1.190024 4.110136
v 0.009591 0.990541 4.107368
v 0.010132 1.190540 4.107366
v 0.020440 0.990541 5.924558
v 0.023234 1.190540 5.925421
v 0.217254 0.990025 5.926044
v 0.217794 1.190024 5.926041
vn -0.0541 -0.0025 -0.9985
vn -0.0041 0.0044 -1.0000
vn -0.0542 -0.0025 -0.9985
vn -0.1040 -0.0094 -0.9945
vn 0.9997 -0.0021 0.0261
vn 0.9978 0.0049 0.0665
vn 0.9997 -0.0021 0.0260
vn 0.9999 -0.0091 -0.0145
vn 0.0542 0.0026 0.9985
vn 0.0042 0.0097 0.9999
vn 0.1041 -0.0045 0.9946
vn -0.9997 0.0032 -0.0261
vn -0.9977 0.0099 -0.0665
vn -0.9999 -0.0037 0.0150
vn -0.0099 0.9994 -0.0346
vn -0.0027 -1.0000 0.0020
vn 0.9998 -0.0027 -0.0178
vn 0.0025 0.9996 -0.0294
vn 0.0028 0.9996 -0.0294
vn 0.0029 0.9996 -0.0294
vn -1.0000 0.0027 0.0041
vn -0.0025 -0.9996 0.0294
vn -0.0028 -0.9996 0.0294
vn -0.0029 -0.9996 0.0294
vn -0.0005 -0.0294 -0.9996
vn -0.0004 -0.0294 -0.9996
vn 0.0017 0.0294 0.9996
vn 0.0018 0.0294 0.9996
vn 1.0000 0.0036 -0.0070
vn 0.9999 0.0095 -0.0077
vn 1.0000 -0.0024 -0.0064
vn 0.0025 1.0000 0.0064
vn 0.0026 1.0000 0.0064
vn -0.0024 -1.0000 -0.0064
vn -0.0026 -1.0000 -0.0064
vn 0.0079 0.0063 -0.9999
vn 0.0078 0.0064 -0.9999
vn -0.0179 -0.0041 0.9998
vn -0.0201 -0.0063 0.9998
vn -0.0178 -0.0041 0.9998
vn -0.0156 -0.0019 0.9999
vn -0.0050 0.0084 -1.0000
vn -0.0041 -0.0027 -1.0000
vn 0.9986 -0.0023 0.0525
vn 0.0041 0.0027 1.0000
vn -0.9986 0.0028 -0.0525
vn -0.0808 0.9967 -0.0065
vn -0.0027 -1.0000 0.0022
vn -0.0204 -0.0005 -0.9998
vn -0.0041 0.0017 -1.0000
vn -0.0368 -0.0027 -0.9993
vn 0.9999 -0.0026 -0.0129
vn 1.0000 -0.0014 -0.0041
vn 0.9997 -0.0039 -0.0223
vn 0.0205 0.0049 0.9998
vn 0.0042 0.0072 1.0000
vn 0.0206 0.0049 0.9998
vn 0.0368 0.0025 0.9993
vn -0.9999 0.0029 0.0130
vn -1.0000 0.0041 0.0041
vn -0.9998 0.0016 0.0218
vn 0.0674 0.9674 0.2441
vn -0.0027 -1.0000 0.0027
vn 0.9927 -0.1207 -0.0031
vn 0.9902 -0.1394 -0.0006
vn 0.9948 -0.1020 -0.0057
vn 0.1838 0.9826 -0.0264
vn 0.1806 0.9832 -0.0267
vn 0.1871 0.9820 -0.0260
vn -0.9957 0.0922 0.0019
vn -0.9958 0.0914 0.0018
vn -0.9957 0.0924 0.0019
vn -0.9956 0.0932 0.0020
vn -0.1890 -0.9816 0.0260
vn -0.1887 -0.9817 0.0260
vn -0.0035 -0.0634 -0.9980
vn -0.0049 -0.0616 -0.9981
vn -0.0036 -0.0634 -0.9980
vn -0.0022 -0.0652 -0.9979
vn -0.0047 0.0573 0.9983
vn 0.0064 0.0655 0.9978
vn -0.0153 0.0495 0.9987
vn 1.0000 -0.0027 -0.0041
vn 0.0026 1.0000 -0.0000
vn 0.0027 1.0000 -0.0000
vn -0.9999 0.0083 0.0066
vn -0.9999 0.0139 0.0072
vn -1.0000 0.0027 0.0060
vn -0.0026 -1.0000 -0.0000
vn 0.0138 -0.0000 -0.9999
vn -0.0054 -0.0021 1.0000
vn -0.0076 -0.0042 1.0000
vn -0.0032 -0.0000 1.0000
vt 0.243701 0.000000
vt 0.443701 0.000000
vt 0.453146 1.495130
vt 0.254156 1.496827
vt 0.499587 -0.000000
vt 0.699587 -0.000000
vt 0.709005 1.496968
vt 0.510158 1.504805
vt 0.860416 0.000000
vt 1.060416 0.000000
vt 1.069861 1.504945
vt 0.870871 1.502965
vt 0.389922 -0.000000
vt 0.589922 -0.000000
vt 0.599340 1.503105
vt 0.400492 1.494991
vt 0.198997 0.219000
vt 0.000000 0.198997
vt 0.020003 0.000000
vt 0.219000 0.020003
vt 0.000000 0.000000
vt 0.200000 0.000000
vt 0.200000 0.200000
vt 0.000000 0.200000
vt 0.328997 0.000000
vt 0.528997 0.000000
vt 0.528997 1.815921
vt 0.328997 1.815921
vt 0.560512 0.000000
vt 0.751403 0.000000
vt 0.751403 1.815921
vt 0.560512 1.815921
vt 0.865139 0.000000
vt 1.065139 0.000000
vt 1.065139 1.815921
vt 0.865139 1.815921
vt 0.109665 0.000000
vt 0.300555 0.000000
vt 0.300555 1.815921
vt 0.109665 1.815921
vt 0.200000 0.190890
vt 0.000000 0.190890
vt 0.200000 0.000000
vt 0.200000 0.190890
vt 0.000000 0.190890
vt 0.670178 0.000000
vt 0.870178 0.000000
vt 0.870178 1.815921
vt 0.670178 1.815921
vt 0.194961 0.000000
vt 0.385851 0.000000
vt 0.385851 1.815921
vt 0.194961 1.815921
vt 0.085296 0.000000
vt 0.285296 0.000000
vt 0.285295 1.815921
vt 0.085296 1.815921
vt 0.353366 0.000000
vt 0.544257 0.000000
vt 0.544257 1.815921
vt 0.353366 1.815921
vt 0.480256 0.190890
vt 0.280256 0.190890
vt 0.280256 0.000000
vt 0.480256 0.000000
vt 0.842152 0.190890
vt 0.642152 0.190890
vt 0.642152 -0.000000
vt 0.842152 -0.000000
vt 0.200000 0.191243
vt 0.000000 0.191243
vt 0.272915 0.000000
vt 0.472915 0.000000
vt 0.472566 1.445381
vt 0.273264 1.462069
vt 0.765922 0.000000
vt 0.965922 0.000000
vt 0.965922 1.462069
vt 0.765922 1.462069
vt 0.396167 0.000000
vt 0.596167 0.000000
vt 0.595818 1.462069
vt 0.396515 1.445381
vt 0.554633 0.000000
vt 0.754633 0.000000
vt 0.754633 1.445381
vt 0.554633 1.445381
vt 0.791673 0.049865
vt 0.949917 -0.072442
vt 1.072224 0.085802
vt 0.913980 0.208109
vt 0.308130 0.000000
vt 0.508130 0.000000
vt 0.508130 0.200000
vt 0.308130 0.200000
vt 0.268071 0.000000
vt 0.468071 0.000000
vt 0.469588 1.473068
vt 0.270026 1.461537
vt 0.694548 -0.000000
vt 0.894548 -0.000000
vt 0.894659 1.461552
vt 0.700967 1.411836
vt 0.645808 -0.000000
vt 0.845808 -0.000000
vt 0.847325 1.411854
vt 0.647763 1.423327
vt 0.463032 -0.000000
vt 0.663032 -0.000000
vt 0.663143 1.423343
vt 0.469451 1.473051
vt 0.199887 0.474696
vt 0.000000 0.467958
vt 0.006738 0.268071
vt 0.206625 0.274809
vt 0.000000 0.560512
vt 0.200000 0.560512
vt 0.200000 0.760512
vt 0.000000 0.760512
vt 0.597068 0.000000
vt 0.797068 0.000000
vt 0.797068 1.820984
vt 0.597068 1.820984
vt 0.438662 -0.000000
vt 0.629552 -0.000000
vt 0.629552 1.820984
vt 0.438662 1.820984
vt 0.194961 -0.000000
vt 0.394961 -0.000000
vt 0.394961 1.820984
vt 0.194961 1.820984
vt 0.389922 0.000000
vt 0.580812 0.000000
vt 0.580812 1.820984
vt 0.389922 1.820984
vt 0.463955 -0.591169
vt 0.663955 -0.591169
vt 0.663955 1.224752
vt 0.463955 1.224752
vt 0.763281 0.284360
vt 0.954171 0.284360
vt 0.954171 2.100280
vt 0.763281 2.100280
vt 0.217011 -0.987776
vt 0.417011 -0.987776
vt 0.417011 0.828145
vt 0.217011 0.828145
vt 0.576202 0.097281
vt 0.767093 0.097281
vt 0.767092 1.913202
vt 0.576202 1.913202
vt 0.985730 0.190890
vt 0.785730 0.190890
vt 0.785730 0.000000
vt 0.985730 0.000000
vt 0.381641 0.471438
vt 0.581641 0.471438
vt 0.581641 0.662328
vt 0.381641 0.662328
s 1
usemtl WoodLog_Plank.003
f 354/319/187 353/320/188 355/321/189
f 356/322/190 354/319/187 355/321/189
f 358/323/191 357/324/192 359/325/193
f 360/326/194 358/323/191 359/325/193
f 362/327/195 361/328/196 363/329/195
f 364/330/197 362/327/195 363/329/195
f 366/331/198 365/332/199 367/333/198
f 368/334/200 366/331/198 367/333/198
f 370/335/201 369/336/201 371/337/201
f 372/338/201 370/335/201 371/337/201
f 374/339/202 373/340/202 375/341/202
f 376/342/202 374/339/202 375/341/202
f 378/343/203 377/344/203 379/345/203
f 380/346/203 378/343/203 379/345/203
f 382/347/204 381/348/204 383/349/205
f 384/350/206 382/347/204 383/349/205
f 386/351/207 385/352/207 387/353/207
f 388/354/207 386/351/207 387/353/207
f 390/355/208 389/356/208 391/357/209
f 392/358/210 390/355/208 391/357/209
f 394/359/211 393/360/212 395/339/211
f 396/361/211 394/359/211 395/339/211
f 398/339/213 397/340/213 399/362/213
f 400/363/214 398/339/213 399/362/213
f 402/364/215 401/365/216 403/366/215
f 404/367/217 402/364/215 403/366/215
f 406/368/218 405/369/218 407/370/219
f 408/371/219 406/368/218 407/370/219
f 410/372/207 409/373/207 411/374/207
f 412/375/207 410/372/207 411/374/207
f 414/376/220 413/377/220 415/378/221
f 416/379/221 414/376/220 415/378/221
f 418/380/222 417/381/222 419/382/222
f 420/383/223 418/380/222 419/382/222
f 422/339/224 421/340/225 423/362/226
f 424/363/227 422/339/224 423/362/226
f 426/384/228 425/385/228 427/386/228
f 428/387/228 426/384/228 427/386/228
f 430/388/229 429/389/229 431/339/229
f 432/361/229 430/388/229 431/339/229
f 434/390/229 433/391/229 435/392/229
f 436/393/229 434/390/229 435/392/229
f 438/394/230 437/395/230 439/396/230
f 440/397/230 438/394/230 439/396/230
f 442/398/231 441/399/231 443/400/231
f 444/401/231 442/398/231 443/400/231
f 446/402/232 445/403/232 447/404/232
f 448/405/232 446/402/232 447/404/232
f 450/406/233 449/407/233 451/408/233
f 452/409/233 450/406/233 451/408/233
f 454/410/234 453/411/234 455/412/234
f 456/413/234 454/410/234 455/412/234
f 458/414/235 457/415/236 459/416/235
f 460/417/237 458/414/235 459/416/235
f 462/418/238 461/419/239 463/420/238
f 464/421/240 462/418/238 463/420/238
f 466/422/241 465/423/242 467/424/243
f 468/425/244 466/422/241 467/424/243
f 470/426/245 469/427/246 471/428/245
f 472/429/247 470/426/245 471/428/245
f 474/430/248 473/431/248 475/432/248
f 476/433/248 474/430/248 475/432/248
f 478/434/249 477/435/249 479/436/249
f 480/437/249 478/434/249 479/436/249
f 482/438/250 481/439/251 483/440/250
f 484/441/252 482/438/250 483/440/250
f 486/442/253 485/443/254 487/444/253
f 488/445/255 486/442/253 487/444/253
f 490/446/256 489/447/257 491/448/258
f 492/449/259 490/446/256 491/448/258
f 494/450/260 493/451/260 495/452/261
f 496/453/261 494/450/260 495/452/261
f 498/359/262 497/360/263 499/339/264
f 500/361/265 498/359/262 499/339/264
f 502/339/266 501/340/267 503/362/266
f 504/363/268 502/339/266 503/362/266
f 506/454/269 505/455/269 507/456/269
f 508/457/269 506/454/269 507/456/269
f 510/458/270 509/459/271 511/460/270
f 512/461/270 510/458/270 511/460/270
f 514/462/272 513/463/273 515/464/272
f 516/465/274 514/462/272 515/464/272
f 518/466/275 517/467/275 519/468/275
f 520/469/275 518/466/275 519/468/275
f 522/470/276 521/471/276 523/472/276
f 524/473/276 522/470/276 523/472/276
f 526/474/277 525/475/278 527/476/277
f 528/477/279 526/474/277 527/476/277
o fence.004
v 0.000000 0.000000 6.066650
v 0.199997 -0.000540 6.065824
v -0.005378 1.495136 6.073203
v 0.193532 1.496383 6.052389
v 0.199997 -0.000540 6.065824
v 0.183692 0.000000 6.310459
v 0.193532 1.496383 6.052389
v 0.197141 1.504842 6.295767
v 0.183692 0.000000 6.310459
v -0.016306 0.000540 6.311285
v 0.197141 1.504842 6.295767
v -0.001768 1.503595 6.316582
v -0.016306 0.000540 6.311285
v 0.000000 0.000000 6.066650
v -0.001768 1.503595 6.316582
v -0.005378 1.495136 6.073203
v -0.005378 1.495136 6.073203
v 0.193532 1.496383 6.052389
v -0.001768 1.503595 6.316582
v 0.197141 1.504842 6.295767
v -0.016306 0.000540 6.311285
v 0.183692 0.000000 6.310459
v 0.000000 0.000000 6.066650
v 0.199997 -0.000540 6.065824
v 0.205145 0.976586 8.059690
v 0.205580 1.176499 8.053806
v 0.172646 0.923245 6.244844
v 0.173082 1.123158 6.238961
v 0.205580 1.176499 8.053806
v 0.000781 1.177014 8.054152
v 0.173082 1.123158 6.238961
v -0.006863 1.123674 6.239030
v 0.000781 1.177014 8.054152
v 0.000266 0.977102 8.060028
v -0.006863 1.123674 6.239030
v -0.007380 0.923761 6.244907
v 0.000266 0.977102 8.060028
v 0.205145 0.976586 8.059690
v -0.007380 0.923761 6.244907
v 0.172646 0.923245 6.244844
v 0.172646 0.923245 6.244844
v 0.173082 1.123158 6.238961
v -0.007380 0.923761 6.244907
v -0.006863 1.123674 6.239030
v 0.000266 0.977102 8.060028
v 0.000781 1.177014 8.054152
v 0.205145 0.976586 8.059690
v 0.205580 1.176499 8.053806
v 0.215798 0.400775 8.070210
v 0.213900 0.600770 8.070552
v 0.201755 0.412411 6.251820
v 0.202236 0.612406 6.253075
v 0.213900 0.600770 8.070552
v 0.012766 0.601286 8.067408
v 0.202236 0.612406 6.253075
v 0.005295 0.612922 6.251540
v 0.012766 0.601286 8.067408
v 0.012222 0.401291 8.066128
v 0.005295 0.612922 6.251540
v 0.004748 0.412927 6.250260
v 0.012222 0.401291 8.066128
v 0.215798 0.400775 8.070210
v 0.004748 0.412927 6.250260
v 0.201755 0.412411 6.251820
v 0.201755 0.412411 6.251820
v 0.202236 0.612406 6.253075
v 0.004748 0.412927 6.250260
v 0.005295 0.612922 6.251540
v 0.012222 0.401291 8.066128
v 0.012766 0.601286 8.067408
v 0.215798 0.400775 8.070210
v 0.213900 0.600770 8.070552
v 0.226446 1.015573 10.220152
v 0.211404 1.214999 10.221903
v 0.036099 1.001208 10.220978
v 0.021057 1.200633 10.222731
v 0.218991 0.464799 10.221551
v 0.219530 0.664798 10.221007
v 0.027751 0.465316 10.222341
v 0.028289 0.665314 10.221799
v 0.029537 0.010000 10.002391
v 0.229534 0.009460 10.001562
v 0.033775 1.455370 9.998469
v 0.233120 1.471519 9.997600
v 0.229534 0.009460 10.001562
v 0.217231 0.010000 10.235773
v 0.233120 1.471519 9.997600
v 0.220816 1.472059 10.231807
v 0.217231 0.010000 10.235773
v 0.017234 0.010541 10.236599
v 0.220816 1.472059 10.231807
v 0.021471 1.455910 10.232675
v 0.017234 0.010541 10.236599
v 0.029537 0.010000 10.002391
v 0.021471 1.455910 10.232675
v 0.033775 1.455370 9.998469
v 0.033775 1.455370 9.998469
v 0.233120 1.471519 9.997600
v 0.021471 1.455910 10.232675
v 0.220816 1.472059 10.231807
v 0.017234 0.010541 10.236599
v 0.217231 0.010000 10.235773
v 0.029537 0.010000 10.002391
v 0.229534 0.009460 10.001562
v 0.008100 0.010000 8.026627
v 0.208097 0.009460 8.025801
v 0.010573 1.483065 8.029056
v 0.210074 1.471005 8.021733
v 0.208097 0.009460 8.025801
v 0.208925 0.010000 8.225799
v 0.210074 1.471005 8.021733
v 0.214213 1.421808 8.215543
v 0.208925 0.010000 8.225799
v 0.008928 0.010540 8.226624
v 0.214213 1.421808 8.215543
v 0.014713 1.433867 8.222866
v 0.008928 0.010540 8.226624
v 0.008100 0.010000 8.026627
v 0.014713 1.433867 8.222866
v 0.010573 1.483065 8.029056
v 0.010573 1.483065 8.029056
v 0.210074 1.471005 8.021733
v 0.014713 1.433867 8.222866
v 0.214213 1.421808 8.215543
v 0.008928 0.010540 8.226624
v 0.208925 0.010000 8.225799
v 0.008100 0.010000 8.026627
v 0.208097 0.009460 8.025801
v 0.197441 0.418869 10.032722
v 0.225056 0.615100 10.023424
v 0.189794 0.372111 8.212354
v 0.209837 0.568343 8.200150
v 0.225056 0.615100 10.023424
v 0.025391 0.651653 10.018548
v 0.209837 0.568343 8.200150
v 0.017743 0.604896 8.198180
v 0.025391 0.651653 10.018548
v 0.007403 0.455421 10.031542
v 0.017743 0.604896 8.198180
v -0.000594 0.408664 8.211039
v 0.007403 0.455421 10.031542
v 0.197441 0.418869 10.032722
v -0.000594 0.408664 8.211039
v 0.189794 0.372111 8.212354
v 0.189794 0.372111 8.212354
v 0.209837 0.568343 8.200150
v -0.000594 0.408664 8.211039
v 0.017743 0.604896 8.198180
v 0.007403 0.455421 10.031542
v 0.025391 0.651653 10.018548
v 0.197441 0.418869 10.032722
v 0.225056 0.615100 10.023424
v 0.217254 0.990025 10.026043
v 0.217794 1.190024 10.026041
v 0.209750 0.990025 8.210137
v 0.210289 1.190024 8.210136
v 0.217794 1.190024 10.026041
v 0.023234 1.190540 10.025420
v 0.210289 1.190024 8.210136
v 0.010132 1.190540 8.207366
v 0.023234 1.190540 10.025420
v 0.020440 0.990541 10.024558
v 0.010132 1.190540 8.207366
v 0.009591 0.990541 8.207368
v 0.020440 0.990541 10.024558
v 0.217254 0.990025 10.026043
v 0.009591 0.990541 8.207368
v 0.209750 0.990025 8.210137
v 0.209750 0.990025 8.210137
v 0.210289 1.190024 8.210136
v 0.009591 0.990541 8.207368
v 0.010132 1.190540 8.207366
v 0.020440 0.990541 10.024558
v 0.023234 1.190540 10.025420
v 0.217254 0.990025 10.026043
v 0.217794 1.190024 10.026041
vn -0.0541 -0.0025 -0.9985
vn -0.0041 0.0044 -1.0000
vn -0.0542 -0.0025 -0.9985
vn -0.1040 -0.0094 -0.9945
vn 0.9997 -0.0021 0.0261
vn 0.9978 0.0049 0.0665
vn 0.9997 -0.0021 0.0260
vn 0.9999 -0.0091 -0.0145
vn 0.0542 0.0026 0.9985
vn 0.0042 0.0097 0.9999
vn 0.1041 -0.0045 0.9946
vn -0.9997 0.0032 -0.0261
vn -0.9977 0.0099 -0.0665
vn -0.9999 -0.0037 0.0150
vn -0.0099 0.9994 -0.0346
vn -0.0027 -1.0000 0.0020
vn 0.9998 -0.0027 -0.0178
vn 0.0025 0.9996 -0.0294
vn 0.0028 0.9996 -0.0294
vn 0.0029 0.9996 -0.0294
vn -1.0000 0.0027 0.0041
vn -0.0025 -0.9996 0.0294
vn -0.0028 -0.9996 0.0294
vn -0.0029 -0.9996 0.0294
vn -0.0005 -0.0294 -0.9996
vn -0.0004 -0.0294 -0.9996
vn 0.0017 0.0294 0.9996
vn 0.0018 0.0294 0.9996
vn 1.0000 0.0036 -0.0070
vn 0.9999 0.0095 -0.0077
vn 1.0000 -0.0024 -0.0064
vn 0.0025 1.0000 0.0064
vn 0.0026 1.0000 0.0064
vn -0.0024 -1.0000 -0.0064
vn -0.0026 -1.0000 -0.0064
vn 0.0079 0.0063 -0.9999
vn 0.0078 0.0064 -0.9999
vn -0.0179 -0.0041 0.9998
vn -0.0201 -0.0063 0.9998
vn -0.0178 -0.0041 0.9998
vn -0.0156 -0.0019 0.9999
vn -0.0050 0.0084 -1.0000
vn -0.0041 -0.0027 -1.0000
vn 0.9986 -0.0023 0.0525
vn 0.0041 0.0027 1.0000
vn -0.9986 0.0028 -0.0525
vn -0.0808 0.9967 -0.0065
vn -0.0027 -1.0000 0.0022
vn -0.0204 -0.0005 -0.9998
vn -0.0041 0.0017 -1.0000
vn -0.0368 -0.0027 -0.9993
vn 0.9999 -0.0026 -0.0129
vn 1.0000 -0.0014 -0.0041
vn 0.9997 -0.0039 -0.0223
vn 0.0205 0.0049 0.9998
vn 0.0042 0.0072 1.0000
vn 0.0206 0.0049 0.9998
vn 0.0368 0.0025 0.9993
vn -0.9999 0.0029 0.0130
vn -1.0000 0.0041 0.0041
vn -0.9998 0.0016 0.0218
vn 0.0674 0.9674 0.2441
vn -0.0027 -1.0000 0.0027
vn 0.9927 -0.1207 -0.0031
vn 0.9902 -0.1394 -0.0006
vn 0.9948 -0.1020 -0.0057
vn 0.1838 0.9826 -0.0264
vn 0.1806 0.9832 -0.0267
vn 0.1871 0.9820 -0.0260
vn -0.9957 0.0922 0.0019
vn -0.9958 0.0914 0.0018
vn -0.9957 0.0924 0.0019
vn -0.9956 0.0932 0.0020
vn -0.1890 -0.9816 0.0260
vn -0.1887 -0.9817 0.0260
vn -0.0035 -0.0634 -0.9980
vn -0.0049 -0.0616 -0.9981
vn -0.0036 -0.0634 -0.9980
vn -0.0022 -0.0652 -0.9979
vn -0.0047 0.0573 0.9983
vn 0.0064 0.0655 0.9978
vn -0.0153 0.0495 0.9987
vn 1.0000 -0.0027 -0.0041
vn 0.0026 1.0000 -0.0000
vn 0.0027 1.0000 -0.0000
vn -0.9999 0.0083 0.0066
vn -0.9999 0.0139 0.0072
vn -1.0000 0.0027 0.0060
vn -0.0026 -1.0000 -0.0000
vn 0.0138 -0.0000 -0.9999
vn -0.0054 -0.0021 1.0000
vn -0.0076 -0.0042 1.0000
vn -0.0032 -0.0000 1.0000
vt 0.243701 0.000000
vt 0.443701 0.000000
vt 0.453146 1.495130
vt 0.254156 1.496827
vt 0.499587 -0.000000
vt 0.699587 -0.000000
vt 0.709005 1.496968
vt 0.510158 1.504805
vt 0.860416 0.000000
vt 1.060416 0.000000
vt 1.069861 1.504945
vt 0.870871 1.502965
vt 0.389922 -0.000000
vt 0.589922 -0.000000
vt 0.599340 1.503105
vt 0.400492 1.494991
vt 0.198997 0.219000
vt 0.000000 0.198997
vt 0.020003 0.000000
vt 0.219000 0.020003
vt 0.000000 0.000000
vt 0.200000 0.000000
vt 0.200000 0.200000
vt 0.000000 0.200000
vt 0.328997 0.000000
vt 0.528997 0.000000
vt 0.528997 1.815921
vt 0.328997 1.815921
vt 0.560512 0.000000
vt 0.751403 0.000000
vt 0.751403 1.815921
vt 0.560512 1.815921
vt 0.865139 0.000000
vt 1.065139 0.000000
vt 1.065139 1.815921
vt 0.865139 1.815921
vt 0.109665 0.000000
vt 0.300555 0.000000
vt 0.300555 1.815921
vt 0.109665 1.815921
vt 0.200000 0.190890
vt 0.000000 0.190890
vt 0.200000 0.000000
vt 0.200000 0.190890
vt 0.000000 0.190890
vt 0.670178 0.000000
vt 0.870178 0.000000
vt 0.870178 1.815921
vt 0.670178 1.815921
vt 0.194961 0.000000
vt 0.385851 0.000000
vt 0.385851 1.815921
vt 0.194961 1.815921
vt 0.085296 0.000000
vt 0.285296 0.000000
vt 0.285295 1.815921
vt 0.085296 1.815921
vt 0.353366 0.000000
vt 0.544257 0.000000
vt 0.544257 1.815921
vt 0.353366 1.815921
vt 0.480256 0.190890
vt 0.280256 0.190890
vt 0.280256 0.000000
vt 0.480256 0.000000
vt 0.842152 0.190890
vt 0.642152 0.190890
vt 0.642152 -0.000000
vt 0.842152 -0.000000
vt 0.200000 0.191243
vt 0.000000 0.191243
vt 0.272915 0.000000
vt 0.472915 0.000000
vt 0.472566 1.445381
vt 0.273264 1.462069
vt 0.765922 0.000000
vt 0.965922 0.000000
vt 0.965922 1.462069
vt 0.765922 1.462069
vt 0.396167 0.000000
vt 0.596167 0.000000
vt 0.595818 1.462069
vt 0.396515 1.445381
vt 0.554633 0.000000
vt 0.754633 0.000000
vt 0.754633 1.445381
vt 0.554633 1.445381
vt 0.791673 0.049865
vt 0.949917 -0.072442
vt 1.072224 0.085802
vt 0.913980 0.208109
vt 0.308130 0.000000
vt 0.508130 0.000000
vt 0.508130 0.200000
vt 0.308130 0.200000
vt 0.268071 0.000000
vt 0.468071 0.000000
vt 0.469588 1.473068
vt 0.270026 1.461537
vt 0.694548 -0.000000
vt 0.894548 -0.000000
vt 0.894659 1.461552
vt 0.700967 1.411836
vt 0.645808 -0.000000
vt 0.845808 -0.000000
vt 0.847325 1.411854
vt 0.647763 1.423327
vt 0.463032 -0.000000
vt 0.663032 -0.000000
vt 0.663143 1.423343
vt 0.469451 1.473051
vt 0.199887 0.474696
vt 0.000000 0.467958
vt 0.006738 0.268071
vt 0.206625 0.274809
vt 0.000000 0.560512
vt 0.200000 0.560512
vt 0.200000 0.760512
vt 0.000000 0.760512
vt 0.597068 0.000000
vt 0.797068 0.000000
vt 0.797068 1.820984
vt 0.597068 1.820984
vt 0.438662 -0.000000
vt 0.629552 -0.000000
vt 0.629552 1.820984
vt 0.438662 1.820984
vt 0.194961 -0.000000
vt 0.394961 -0.000000
vt 0.394961 1.820984
vt 0.194961 1.820984
vt 0.389922 0.000000
vt 0.580812 0.000000
vt 0.580812 1.820984
vt 0.389922 1.820984
vt 0.463955 -0.591169
vt 0.663955 -0.591169
vt 0.663955 1.224752
vt 0.463955 1.224752
vt 0.763281 0.284360
vt 0.954171 0.284360
vt 0.954171 2.100280
vt 0.763281 2.100280
vt 0.217011 -0.987776
vt 0.417011 -0.987776
vt 0.417011 0.828145
vt 0.217011 0.828145
vt 0.576202 0.097281
vt 0.767093 0.097281
vt 0.767092 1.913202
vt 0.576202 1.913202
vt 0.985730 0.190890
vt 0.785730 0.190890
vt 0.785730 0.000000
vt 0.985730 0.000000
vt 0.381641 0.471438
vt 0.581641 0.471438
vt 0.581641 0.662328
vt 0.381641 0.662328
s 1
usemtl WoodLog_Plank.004
f 530/478/280 529/479/281 531/480/282
f 532/481/283 530/478/280 531/480/282
f 534/482/284 533/483/285 535/484/286
f 536/485/287 534/482/284 535/484/286
f 538/486/288 537/487/289 539/488/288
f 540/489/290 538/486/288 539/488/288
f 542/490/291 541/491/292 543/492/291
f 544/493/293 542/490/291 543/492/291
f 546/494/294 545/495/294 547/496/294
f 548/497/294 546/494/294 547/496/294
f 550/498/295 549/499/295 551/500/295
f 552/501/295 550/498/295 551/500/295
f 554/502/296 553/503/296 555/504/296
f 556/505/296 554/502/296 555/504/296
f 558/506/297 557/507/297 559/508/298
f 560/509/299 558/506/297 559/508/298
f 562/510/300 561/511/300 563/512/300
f 564/513/300 562/510/300 563/512/300
f 566/514/301 565/515/301 567/516/302
f 568/517/303 566/514/301 567/516/302
f 570/518/304 569/519/305 571/498/304
f 572/520/304 570/518/304 571/498/304
f 574/498/306 573/499/306 575/521/306
f 576/522/307 574/498/306 575/521/306
f 578/523/308 577/524/309 579/525/308
f 580/526/310 578/523/308 579/525/308
f 582/527/311 581/528/311 583/529/312
f 584/530/312 582/527/311 583/529/312
f 586/531/300 585/532/300 587/533/300
f 588/534/300 586/531/300 587/533/300
f 590/535/313 589/536/313 591/537/314
f 592/538/314 590/535/313 591/537/314
f 594/539/315 593/540/315 595/541/315
f 596/542/316 594/539/315 595/541/315
f 598/498/317 597/499/318 599/521/319
f 600/522/320 598/498/317 599/521/319
f 602/543/321 601/544/321 603/545/321
f 604/546/321 602/543/321 603/545/321
f 606/547/322 605/548/322 607/498/322
f 608/520/322 606/547/322 607/498/322
f 610/549/322 609/550/322 611/551/322
f 612/552/322 610/549/322 611/551/322
f 614/553/323 613/554/323 615/555/323
f 616/556/323 614/553/323 615/555/323
f 618/557/324 617/558/324 619/559/324
f 620/560/324 618/557/324 619/559/324
f 622/561/325 621/562/325 623/563/325
f 624/564/325 622/561/325 623/563/325
f 626/565/326 625/566/326 627/567/326
f 628/568/326 626/565/326 627/567/326
f 630/569/327 629/570/327 631/571/327
f 632/572/327 630/569/327 631/571/327
f 634/573/328 633/574/329 635/575/328
f 636/576/330 634/573/328 635/575/328
f 638/577/331 637/578/332 639/579/331
f 640/580/333 638/577/331 639/579/331
f 642/581/334 641/582/335 643/583/336
f 644/584/337 642/581/334 643/583/336
f 646/585/338 645/586/339 647/587/338
f 648/588/340 646/585/338 647/587/338
f 650/589/341 649/590/341 651/591/341
f 652/592/341 650/589/341 651/591/341
f 654/593/342 653/594/342 655/595/342
f 656/596/342 654/593/342 655/595/342
f 658/597/343 657/598/344 659/599/343
f 660/600/345 658/597/343 659/599/343
f 662/601/346 661/602/347 663/603/346
f 664/604/348 662/601/346 663/603/346
f 666/605/349 665/606/350 667/607/351
f 668/608/352 666/605/349 667/607/351
f 670/609/353 669/610/353 671/611/354
f 672/612/354 670/609/353 671/611/354
f 674/518/355 673/519/356 675/498/357
f 676/520/358 674/518/355 675/498/357
f 678/498/359 677/499/360 679/521/359
f 680/522/361 678/498/359 679/521/359
f 682/613/362 681/614/362 683/615/362
f 684/616/362 682/613/362 683/615/362
f 686/617/363 685/618/364 687/619/363
f 688/620/363 686/617/363 687/619/363
f 690/621/365 689/622/366 691/623/365
f 692/624/367 690/621/365 691/623/365
f 694/625/368 693/626/368 695/627/368
f 696/628/368 694/625/368 695/627/368
f 698/629/369 697/630/369 699/631/369
f 700/632/369 698/629/369 699/631/369
f 702/633/370 701/634/371 703/635/370
f 704/636/372 702/633/370 703/635/370
